Patient4_TMGait_0pt8_01_left_43_EMG.mot
version=1
nRows=27
nColumns=33
inDegrees=no
endheader
time	1LAddLong	2LGlutMax	3LGlutMed	4LIliopsoas	5LSemiMemb	6LBicFemLong	7LRecFem	8LVastMed	9LVastLat	10LGasMed	11LTibAnt	12lTibPost	13LPeroneusLong	14LSol	15LExtDigLong	16LFlexDigLong	17RAddLong	18RGlutMax	19RGlutMed	20RIliopsoas	21RSemiMemb	22RBicFemLong	23RRecFem	24RVastMed	25RVastLat	26RGasMed	27RTibAnt	28RTibPost	29RPeroneusLong	30RSol	31RExtDigLong	32RFlexDigLong
48.107	0.00061	0.56091	0.020142	0.032654	-0.070038	-0.17502	0.15488	0.010071	-0.40771	-0.081787	0.23346	0.27679	-0.011139	-0.2655	-0.02655	-0.2594	0.031586	0.037231	-0.36179	-0.10315	-0.087891	0.073242	0.62515	-0.036469	-0.021057	-0.001831	0.059357	0.002441	-0.063629	0.32852	-0.003662	-0.032043
48.108	0.002441	0.61417	0.074921	-0.023193	-0.047302	-0.053558	0.22171	0.012817	-0.39398	-0.016479	0.15854	0.60211	-0.004272	-0.15625	-0.47394	0.21164	0.041351	-0.005341	-0.078583	-0.13519	-0.028839	0.21362	0.72189	0.057678	-0.034027	0.005951	-0.578	-0.003967	-0.008545	0.24307	-0.001373	-0.027466
48.109	-0.024414	0.57709	0.06485	-0.035095	-0.078583	-0.051575	0.26611	0.01358	-0.37003	0.050354	0.1329	-0.2475	-0.052948	0.13123	-0.3862	-0.18738	0.056915	0.012054	-0.17868	-0.090332	0.006866	0.18051	0.80795	0.063782	-0.055695	0.007935	-0.35034	-0.000153	0.022278	0.11963	-0.002441	-0.029907
48.11	-0.016479	0.67474	-0.064545	-0.002747	-0.094757	-0.002289	0.27084	0.014038	-0.31281	-0.34851	0.044861	-0.023346	-0.074463	0.061646	-0.42465	-0.016022	0.043335	0.035706	-0.27695	-0.13901	0.050049	0.13763	0.85037	0.078583	-0.060577	0.002594	-0.039215	-0.002594	0.070953	0.094757	0.001526	-0.035248
48.111	-0.029144	0.76813	-0.112	-0.003967	-0.084381	0.005951	0.24262	0.013733	-0.26184	-0.18951	-0.022736	-0.10025	-0.12955	-0.032196	-0.43518	0.036621	0.073395	0.099792	-0.23727	-0.2301	0.010071	0.04837	0.80017	0.10361	-0.066071	0.002136	0.22934	-0.000763	-0.37125	-0.023499	-0.001831	-0.034027
48.112	0.033569	0.82062	-0.07431	0.01297	-0.002441	0.016174	0.20721	0.027161	-0.21042	-0.12985	-0.013123	-0.06546	-0.078888	-0.22934	-0.15411	-0.25238	0.083771	0.094757	-0.031738	-0.20752	-0.018463	0.032196	0.88028	0.17319	-0.079346	0.007477	-0.028839	0.000153	-0.51971	-0.12863	-0.000458	-0.040588
48.113	-0.038757	0.65018	-0.003662	-0.002136	-0.073547	-0.001984	0.18738	0.0354	-0.13458	-0.30899	-0.036926	-0.18784	-0.073853	-0.12589	0.044556	0.59738	0.073547	0.067444	0.079651	-0.10101	-0.014648	0.006866	0.89874	0.29282	-0.079041	0.01709	0.12482	0.001831	-0.19928	-0.18753	-0.002594	-0.032196
48.114	-0.038605	0.62439	0.058594	-0.006561	-0.11719	-0.037842	0.18021	0.01236	-0.033875	-0.33752	-0.091858	-0.024567	-0.2066	0.26886	0.13473	-0.19318	0.051727	0.03891	-0.1059	0.015259	-0.040283	-0.012512	0.94452	0.29785	-0.076752	0.023193	1.2233	0.001373	-0.18936	-0.30868	-0.006104	-0.037537
48.115	0.020752	0.52765	-0.073395	-0.01236	-0.1178	-0.10696	0.12054	0.006104	-0.063782	-0.22018	-0.077209	-0.15243	-0.11337	0.046082	0.1973	-0.42129	0.066223	-0.000763	-0.21423	0.079346	-0.10239	0.027313	0.91812	0.30991	-0.089264	0.010071	1.2292	0.002899	-0.224	-0.2478	-0.002441	-0.028992
48.116	0.045166	0.44723	-0.13046	-0.015564	-0.10193	-0.14114	0.10452	-0.001373	-0.12787	0.18249	-0.041046	-0.21957	0.013428	-0.089569	0.21255	-0.39581	0.05722	-0.046234	-0.11307	0.11261	-0.14282	-0.001526	0.89706	0.298	-0.078278	0.01236	0.38818	0.004425	-0.057831	-0.11398	-0.001831	-0.022583
48.117	0.033264	0.43747	-0.05249	0.006561	-0.032043	-0.16693	0.10773	0.014648	-0.19424	0.31509	-0.007019	0.034332	0.12039	0.28381	-0.005798	0.35217	0.012512	-0.12604	-0.2034	0.079956	-0.16296	-0.020752	0.93658	0.27039	-0.11414	0.017242	-0.84152	0.004272	0.021057	0.093231	-0.009613	-0.024109
48.118	0.036774	0.42938	-0.059052	0.00885	-0.001831	-0.089874	0.054321	0.016785	-0.19821	0.2681	0.059967	-0.096893	0.1358	0.47073	0.62332	0.059967	-0.038605	-0.15076	-0.59097	0.11459	-0.18738	0.009766	0.95078	0.28214	-0.10605	0.005188	-0.52063	0.002594	-0.075684	0.242	-0.002136	-0.03006
48.119	0.038147	0.45471	-0.11765	-0.018158	0.06485	-0.053406	0.012207	0.011902	-0.1561	0.24887	0.31998	0.007172	0.1062	0.62943	0.42007	-1.5115	-0.10773	-0.27313	-0.97275	0.15976	-0.20371	0.012817	0.80032	0.2742	-0.072937	0.005798	-0.014954	0.00412	-0.0737	0.16312	0.00061	-0.027008
48.12	0.032959	0.53741	-0.10284	-0.00351	0.058289	0.14755	-0.006256	0.002441	-0.10956	0.10559	0.4924	-0.16037	0.007629	0.55023	0.063171	0.90393	-0.11002	-0.31708	-0.8017	0.10635	-0.1712	-0.14252	0.85556	0.28076	-0.067291	0.011749	-0.007477	0.001068	0.027161	0.039215	0.001068	-0.035706
48.121	0.022583	0.57938	0.003204	-0.007324	0.00351	0.2945	-0.055847	0.002747	-0.075989	-0.20142	0.27863	-0.11047	0.038452	0.099487	0.17395	0.1532	-0.047913	-0.34485	-0.55252	0.095825	-0.1683	-0.096588	0.91675	0.16388	-0.094452	0.012207	0.14175	0.005951	-0.065155	0.087891	-0.000153	-0.037537
48.122	0.020599	0.56763	0.11963	-0.005493	-0.029449	0.40955	-0.070648	0.003204	-0.037689	-0.56824	-0.024567	-0.082397	0.023193	0.15518	-0.32974	-0.47012	-0.041046	-0.29282	-0.33814	-0.000305	-0.18829	-0.001068	0.97931	0.1622	-0.096436	0.007324	0.30487	0.004883	-0.12466	0.041199	-0.001831	-0.032043
48.123	0.023804	0.58502	0.14572	-0.020447	-0.064545	0.31815	-0.020905	0.006714	0.036621	-0.70694	-0.34866	-0.045929	0.031738	-0.29068	-0.26352	0.55527	-0.061646	-0.36758	-0.76157	-0.10986	-0.18906	0.001526	0.97931	0.1239	-0.082397	0.004883	0.16022	0.003357	-0.10407	0.023651	0.001068	-0.035095
48.124	0.018005	0.63416	0.12238	-0.016174	-0.085297	-0.017853	-0.034943	0.005341	0.057068	-0.69641	-0.26428	0.028534	-0.010071	-0.26108	-0.10727	0.97794	-0.021362	-0.28656	-1.0493	-0.20584	-0.16174	-0.018921	0.93185	0.05249	-0.10346	0	0.14023	0.006104	-0.049286	0.024414	-0.003052	-0.027161
48.125	0.013428	0.72998	0.11124	-0.002899	-0.11765	-0.083466	-0.15808	0.0177	0.018921	0.001831	-0.18265	0.42038	-0.061493	-0.1683	-0.35675	0.43152	0.032501	-0.31235	-0.98236	-0.15045	-0.14618	0.028992	0.91019	-0.037537	-0.096893	0.004272	0.3067	0.003662	-0.045166	-0.020905	-0.004578	-0.032806
48.126	0.014954	0.77484	0.10056	-0.013123	-0.11337	-0.03067	-0.23956	0.029755	-0.023041	0.41992	-0.048065	0.11871	-0.053711	-0.019836	-0.39291	0.40726	0.086212	-0.34073	-0.9697	0.037842	-0.10376	0.12619	0.89859	-0.097351	-0.090027	0.005493	0.50522	0.000458	-0.043182	-0.10895	-0.001373	-0.026245
48.127	0.024719	0.79117	-0.052795	-0.015869	-0.033264	-0.044861	-0.19104	0.024261	-0.052948	0.60547	0.022736	-0.21027	0.075378	-0.19165	-0.327	0.42908	0.073242	-0.37323	-1.2605	0.23697	-0.1062	0.12299	0.94284	-0.12344	-0.083618	0.003357	0.37048	-0.000916	-0.011749	-0.21423	-0.007172	-0.031128
48.128	0.02655	0.77957	-0.24918	-0.007324	-0.00412	-0.062866	-0.092773	0.005188	-0.077362	0.68192	0.039825	-0.040588	0.12344	-0.62454	-0.25238	-0.11597	0.079193	-0.33127	-1.1604	0.40237	-0.090027	0.12817	0.91751	-0.1445	-0.089264	0.010834	0.58807	-0.002594	-0.081635	-0.31998	-0.001678	-0.027008
48.129	0.032806	0.82306	-0.41351	-0.005188	0.018311	-0.043488	-0.079346	0.003967	-0.092926	0.35858	0.14465	-0.019989	0.009613	-0.44373	0.017395	0.14633	0.066986	-0.32867	-1.2895	0.28656	-0.089874	0.12665	0.80093	-0.22858	-0.10086	0.017853	0.75226	-0.001068	-0.092773	-0.38177	-0.000458	-0.028076
48.13	0.023499	0.90042	-0.26352	0.011444	-0.005798	-0.011444	-0.044403	0.005951	-0.1799	0.095978	0.26825	0.07843	-0.075531	-0.47241	0.19592	-1.3377	0.028534	-0.23224	-1.232	0.10498	-0.10101	0.11185	0.76324	-0.2182	-0.080261	0.015259	0.39612	-0.00061	-0.065613	-0.28641	-0.002899	-0.029297
48.131	0.023346	0.97305	0.28198	0.003357	-0.037689	0.11398	-0.055695	0.006866	-0.15991	0.22888	0.25497	0.10376	-0.17105	-0.16602	0.38849	-0.64346	-0.026855	-0.18463	-0.97015	-0.019531	-0.1062	0.11673	0.8168	-0.21652	-0.079346	0.019684	0.10147	-0.002594	-0.20432	-0.18051	-0.005341	-0.015411
48.132	0.015259	1.0133	0.31189	-0.003052	-0.07782	0.19562	-0.041962	0.009766	-0.17303	0.11566	-0.17609	0.017395	0.065765	-0.83618	0.14801	0.11673	-0.073853	-0.15976	-0.98526	-0.018005	-0.11032	0.08316	0.85205	-0.2684	-0.059204	0.019379	0.33371	-0.006409	-0.15259	0.052185	-0.000916	-0.013123
48.133	0.023956	1.0168	0.47089	-0.018005	-0.12741	0.21408	-0.037842	0.000153	-0.17075	-0.37125	-0.32257	0.28717	0.26535	-0.80078	0.19348	0.56168	-0.11917	-0.21912	-0.82291	-0.044556	-0.13489	0.092621	0.92865	-0.30563	-0.088348	0.014801	-0.5426	-0.01236	-0.13931	0.1474	-0.002899	-0.014038
